<?xml version="1.0" encoding="utf-8"?>
<!-- Generator: Adobe Illustrator 26.0.2, SVG Export Plug-In . SVG Version: 6.00 Build 0)  -->
<svg version="1.1" id="Vrstva_1" xmlns="http://www.w3.org/2000/svg" xmlns:xlink="http://www.w3.org/1999/xlink" x="0px" y="0px"
	 viewBox="0 0 48 48" style="enable-background:new 0 0 48 48;" xml:space="preserve">
<style type="text/css">
	.st0{fill:#CD0030;}
</style>
<path class="st0" d="M4,20.1v-2c0-3.6,1.8-6.6,5.2-8.8S17.7,6,24,6c6.3,0,11.2,1.1,14.8,3.3s5.2,5.1,5.2,8.8v2H4z M7.1,17.1h33.8
	c-0.1-2.3-1.7-4.2-4.8-5.8S28.9,9,24,9c-4.9,0-9,0.8-12.1,2.3S7.1,14.8,7.1,17.1z M4,28.9v-3c1.1,0,2.1-0.4,2.9-1.1s2.1-1.1,3.9-1.1
	s3,0.4,3.6,1.1s1.6,1.1,2.9,1.1s2.4-0.4,3-1.1c0.6-0.7,1.9-1.1,3.7-1.1s3,0.4,3.7,1.1c0.6,0.7,1.7,1.1,3,1.1c1.4,0,2.3-0.4,2.9-1.1
	c0.6-0.7,1.8-1.1,3.6-1.1s3.1,0.4,3.9,1.1c0.8,0.7,1.8,1.1,2.9,1.1v3c-1.8,0-3-0.4-3.7-1.1s-1.7-1.1-3.1-1.1s-2.3,0.4-2.9,1.1
	s-1.8,1.1-3.6,1.1c-1.8,0-3-0.4-3.7-1.1c-0.7-0.7-1.7-1.1-3-1.1c-1.4,0-2.4,0.4-3,1.1c-0.7,0.7-1.9,1.1-3.7,1.1
	c-1.8,0-3-0.4-3.6-1.1c-0.6-0.7-1.6-1.1-2.9-1.1s-2.4,0.4-3.1,1.1C7,28.5,5.8,28.9,4,28.9z M7,42c-0.8,0-1.5-0.3-2.1-0.9
	C4.3,40.5,4,39.8,4,39v-6.4h40V39c0,0.8-0.3,1.5-0.9,2.1C42.5,41.7,41.8,42,41,42H7z M7,39h34v-3.4H7V39z M7,35.6h34H7z M7.1,17.1
	h33.8H7.1z"/>
</svg>
